# xmcd CD database file
#
# Track frame offsets:
#	150
#	12638
#	26694
#	31706
#	45786
#	58312
#	71712
#	84626
#	97602
#	105918
#	118040
#	129390
#	142747
#	156723
#	168422
#	179524
#	187840
#	201601
#	211844
#	224318
#
# Disc length: 3167 seconds
#
# Revision: 2
# Processed by: cddbd v1.5.2PL0 Copyright (c) Steve Scherf et al.
# Submitted via: CDex 1.70beta2
#
DISCID=140c5d14
DTITLE=Various Artist - Country and Western Original Masters - CD 3
DYEAR=1900
DGENRE=Country
TTITLE0=MILTON BROWN (1935) - TAKING OFF (DUNN)
TTITLE1=CARTER FAMILIE (1935) - BYE AND BYE (CARTER)
TTITLE2=GENE AUTRY (1935) - TUMBLING TUMBLEWEEDS (NOLAN)
TTITLE3=ERNEST PHIPPS (1935) - DON'T GRIEVE AFTER ME (PHIPPS)
TTITLE4=MILTON BROWN (1936) - MAMA DON'T ALLOW IT (BROWN)
TTITLE5=GENE AUTRY (1936) - I'LL GO RIDIN' DOWN (AUTRY)
TTITLE6=BOB WILLS (1936) - WHANT'S THE MATTER WITH THE MILL (DOUGLAS - McCOY)
TTITLE7=ROY ACUFF (1936) - GREAT SPECKLED BIRD (SMITH)
TTITLE8=GENE AUTY (1936) - GUNS AND GUITARS (DRAKE - AUTRY)
TTITLE9=THE MONROE BROTHERS (1937) - ALL THE GOOD TIMES (MONROE)
TTITLE10=RIVERSIDE RAMBLERS (1937) - DISSATISFIED (TRADITIONAL)
TTITLE11=ROY RODGERS (1937) - COWBOY NIGHT HERD SONG (NOLAN)
TTITLE12=PATSY MONTANA (1937) - I WANT TO BE A COWBOY'S SWEETHEART (MONTANA)
TTITLE13=AL DEXTER ( 1937) - KONKY TONK BLUES (PARIS - POINDEXTER)
TTITLE14=MODERN MOUNTANEERS (1937) - EVERYBODY'S ROCKIN' (FRITSCH)
TTITLE15=GENE AUTRY (1937) - TAKE ME BACK (SAMUELS - WHITECUP - POWELL)
TTITLE16=ERNEST PHIPPS (1937) - SHINE ON ME (PHIPPS)
TTITLE17=BOB WILLS (1938) - LIZA PULL DOWN THE SHADES (WILLS)
TTITLE18=CLIFF BRUNER (1938) - IT MAKES NO DIFFERENCE NOW (TILLMANN)
TTITLE19=JOE WERNER (1938) - RUNNING AROUND (WERNER)
EXTD=
EXTT0=
EXTT1=
EXTT2=
EXTT3=
EXTT4=
EXTT5=
EXTT6=
EXTT7=
EXTT8=
EXTT9=
EXTT10=
EXTT11=
EXTT12=
EXTT13=
EXTT14=
EXTT15=
EXTT16=
EXTT17=
EXTT18=
EXTT19=
PLAYORDER=
